<svg id="icon" height="512" viewBox="0 0 128 128" width="512" xmlns="http://www.w3.org/2000/svg"><path d="m83.377 113.567a18.381 18.381 0 0 1 -9.577-15.742c-.412-18.317-.058-54.713 8.91-61.235 12.08-8.785 34.641 23.823 40.864 48.548s4.076 36.922-7.272 36.922c-7.402-.001-22.79-2.977-32.925-8.493z" fill="#e68e8b"/><path d="m116.3 123.059c-7.368 0-23.075-2.994-33.4-8.614a19.432 19.432 0 0 1 -10.1-16.6c-.457-20.315.146-55.393 9.322-62.066 2.541-1.849 5.568-2.156 9-.913 12.911 4.68 28.568 30.734 33.424 50.024 4.463 17.734 4.588 28.978.381 34.375-1.966 2.518-4.867 3.794-8.627 3.794zm-29.085-86.928a6.513 6.513 0 0 0 -3.915 1.269c-6.163 4.483-9.261 26.5-8.5 60.4a17.425 17.425 0 0 0 9.057 14.886c10.034 5.462 25.289 8.371 32.444 8.371 3.155 0 5.46-.988 7.045-3.021 3.75-4.811 3.5-15.8-.743-32.657-5.264-20.913-20.9-44.547-32.166-48.632a9.469 9.469 0 0 0 -3.222-.616z" fill="#2f3a5a"/><path d="m116.3 122.059c-7.4 0-22.785-2.972-32.915-8.489a18.238 18.238 0 0 1 -7.626-7.907c.416.281.852.54 1.3.79 10.141 5.517 25.528 8.5 32.926 8.5 11.346 0 13.5-12.2 7.273-36.926-3.075-12.2-10.12-26.318-17.933-36.438 10.1 9.58 20.364 28.1 24.25 43.544 6.218 24.728 4.068 36.926-7.275 36.926z" fill="#d87674"/><path d="m116.3 123.059c-7.368 0-23.075-2.994-33.4-8.614a19.432 19.432 0 0 1 -10.1-16.6c-.457-20.315.146-55.393 9.322-62.066 2.541-1.849 5.568-2.156 9-.913 12.911 4.68 28.568 30.734 33.424 50.024 4.463 17.734 4.588 28.978.381 34.375-1.966 2.518-4.867 3.794-8.627 3.794zm-29.085-86.928a6.513 6.513 0 0 0 -3.915 1.269c-6.163 4.483-9.261 26.5-8.5 60.4a17.425 17.425 0 0 0 9.057 14.886c10.034 5.462 25.289 8.371 32.444 8.371 3.155 0 5.46-.988 7.045-3.021 3.75-4.811 3.5-15.8-.743-32.657-5.264-20.913-20.9-44.547-32.166-48.632a9.469 9.469 0 0 0 -3.222-.616z" fill="#2f3a5a"/><path d="m44.623 113.764a18.381 18.381 0 0 0 9.577-15.742c.412-18.317.058-54.713-8.91-61.235-12.078-8.787-34.639 23.823-40.862 48.548s-4.076 36.922 7.272 36.922c7.4 0 22.788-2.977 32.923-8.493z" fill="#e68e8b"/><path d="m11.7 123.256c-3.76 0-6.661-1.276-8.622-3.792-4.207-5.4-4.082-16.641.381-34.374 4.855-19.29 20.513-45.344 33.424-50.024 3.429-1.243 6.456-.936 9 .913 9.176 6.673 9.779 41.751 9.322 62.066a19.432 19.432 0 0 1 -10.1 16.6c-10.331 5.618-26.037 8.611-33.405 8.611zm29.085-86.927a9.469 9.469 0 0 0 -3.221.618c-11.27 4.084-26.902 27.719-32.164 48.632-4.243 16.858-4.493 27.846-.743 32.656 1.585 2.033 3.889 3.021 7.045 3.021 7.154 0 22.41-2.909 32.444-8.371a17.426 17.426 0 0 0 9.054-14.885c.763-33.9-2.335-55.92-8.5-60.4a6.513 6.513 0 0 0 -3.915-1.271z" fill="#2f3a5a"/><path d="m11.7 122.257c7.4 0 22.785-2.972 32.915-8.489a18.238 18.238 0 0 0 7.626-7.907c-.416.281-.852.54-1.3.79-10.141 5.517-25.528 8.5-32.926 8.5-11.346 0-13.5-12.2-7.273-36.926 3.075-12.2 10.12-26.318 17.933-36.438-10.1 9.58-20.364 28.1-24.25 43.544-6.218 24.728-4.068 36.926 7.275 36.926z" fill="#d87674"/><path d="m11.7 123.256c-3.76 0-6.661-1.276-8.622-3.792-4.207-5.4-4.082-16.641.381-34.374 4.855-19.29 20.513-45.344 33.424-50.024 3.429-1.243 6.456-.936 9 .913 9.176 6.673 9.779 41.751 9.322 62.066a19.432 19.432 0 0 1 -10.1 16.6c-10.331 5.618-26.037 8.611-33.405 8.611zm29.085-86.927a9.469 9.469 0 0 0 -3.221.618c-11.27 4.084-26.902 27.719-32.164 48.632-4.243 16.858-4.493 27.846-.743 32.656 1.585 2.033 3.889 3.021 7.045 3.021 7.154 0 22.41-2.909 32.444-8.371a17.426 17.426 0 0 0 9.054-14.885c.763-33.9-2.335-55.92-8.5-60.4a6.513 6.513 0 0 0 -3.915-1.271z" fill="#2f3a5a"/><path d="m87.832 71.055c-3.763-3.17-8.572-4.74-13.008-6.869a21.914 21.914 0 0 1 -6.58-5.061v-53.382h-8.9v52.757c-2.1 2.434-3.793 4.271-6.733 5.682-4.436 2.129-9.245 3.7-13.008 6.869-7.153 6.025-8.838 16.2-9.975 25.481 2.145-8.914 4.908-18.72 12.678-23.587 3.287-2.059 7.144-2.983 10.678-4.581 3.209-1.452 10.733-4.813 10.733-4.813s7.524 3.361 10.733 4.813c3.534 1.6 7.39 2.522 10.678 4.581 7.77 4.867 10.533 14.673 12.678 23.587-1.136-9.278-2.822-19.452-9.974-25.477z" fill="#d9e2e9"/><path d="m97.806 97.537a1 1 0 0 1 -.972-.766c-2.195-9.122-4.948-18.41-12.234-22.971a34.317 34.317 0 0 0 -6.469-2.9c-1.35-.5-2.745-1.013-4.089-1.621-2.76-1.249-8.713-3.91-10.321-4.629-1.608.719-7.562 3.38-10.32 4.629-1.344.608-2.739 1.123-4.089 1.621a34.356 34.356 0 0 0 -6.47 2.9c-7.292 4.561-10.042 13.849-12.242 22.971a1 1 0 0 1 -1.965-.355c1.2-9.833 2.993-19.95 10.322-26.125 2.9-2.439 6.378-3.963 9.744-5.437 1.15-.5 2.339-1.023 3.476-1.569a18.173 18.173 0 0 0 6.166-5.153v-52.388a1 1 0 0 1 1-1h8.9a1 1 0 0 1 1 1v52.978a20.332 20.332 0 0 0 6.012 4.563c1.137.545 2.326 1.066 3.476 1.569 3.367 1.473 6.848 3 9.744 5.437 7.329 6.174 9.118 16.292 10.322 26.125a1 1 0 0 1 -.814 1.105.962.962 0 0 1 -.177.016zm-37.461-90.793v51.756a1 1 0 0 1 -.242.653c-2.19 2.54-3.978 4.453-7.059 5.931-1.168.561-2.373 1.088-3.538 1.6-3.386 1.481-6.583 2.881-9.258 5.134a21.7 21.7 0 0 0 -5.88 8.248 22.191 22.191 0 0 1 7.408-7.966 36.467 36.467 0 0 1 6.84-3.078c1.316-.485 2.678-.988 3.957-1.566 3.209-1.456 10.737-4.814 10.737-4.814a1 1 0 0 1 .816 0s7.527 3.358 10.737 4.815c1.279.579 2.641 1.081 3.957 1.567a36.456 36.456 0 0 1 6.839 3.076 22.191 22.191 0 0 1 7.408 7.967 21.7 21.7 0 0 0 -5.88-8.249c-2.674-2.253-5.872-3.652-9.257-5.134-1.166-.51-2.371-1.038-3.539-1.6a22.685 22.685 0 0 1 -6.868-5.27 1 1 0 0 1 -.278-.692v-52.378z" fill="#2f3a5a"/><path d="m104.54 74.771a1 1 0 0 1 -.608-.207l-5.91-4.54c-2.415-1.855-5.152-3.958-8.216-4.782-2.657-.717-6.174-.36-8.03 2.047a1 1 0 0 1 -1.584-1.222c2.42-3.137 6.834-3.644 10.134-2.757 3.446.927 6.352 3.159 8.915 5.127l5.91 4.54a1 1 0 0 1 -.61 1.793z" fill="#2f3a5a"/><path d="m89.563 100.817a1 1 0 0 1 -.829-.44 22.422 22.422 0 0 1 -.677-23.619 1 1 0 1 1 1.719 1.023 20.664 20.664 0 0 0 .614 21.475 1 1 0 0 1 -.827 1.56z" fill="#2f3a5a"/><path d="m107.359 95.512a1 1 0 0 1 -.961-.727 15.189 15.189 0 0 0 -11.217-10.46 1 1 0 0 1 .412-1.957 17.237 17.237 0 0 1 12.729 11.87 1 1 0 0 1 -.963 1.274z" fill="#2f3a5a"/><path d="m16.848 81.947a1 1 0 0 1 -.683-1.73 55.786 55.786 0 0 1 10.2-8.127 19.458 19.458 0 0 1 12.986-2.69 1 1 0 1 1 -.367 1.966 17.486 17.486 0 0 0 -11.63 2.458 54.277 54.277 0 0 0 -9.823 7.85 1 1 0 0 1 -.683.273z" fill="#2f3a5a"/><path d="m35.329 107.519a1 1 0 0 1 -.631-1.777c2.466-2 3.786-5.57 3.532-9.55-.237-3.712-1.671-7.285-3.057-10.74a8.912 8.912 0 0 0 -1.612-2.926 1 1 0 1 1 1.439-1.394 10.514 10.514 0 0 1 2.034 3.575c1.445 3.6 2.939 7.325 3.2 11.357.3 4.626-1.3 8.825-4.269 11.232a1 1 0 0 1 -.636.223z" fill="#2f3a5a"/><path d="m16.8 91.985a1 1 0 0 1 -.437-1.9c.813-.393 1.571-.769 2.287-1.124 5.321-2.64 8.536-4.237 13.2-2.136a1 1 0 1 1 -.82 1.823c-3.8-1.709-6.369-.435-11.487 2.1-.722.358-1.486.737-2.3 1.133a1 1 0 0 1 -.443.104z" fill="#2f3a5a"/><circle cx="112.13" cy="106.804" fill="#e95a6a" r="7.478"/><g fill="#2f3a5a"><path d="m112.13 115.282a8.478 8.478 0 1 1 8.478-8.478 8.488 8.488 0 0 1 -8.478 8.478zm0-14.956a6.478 6.478 0 1 0 6.478 6.478 6.486 6.486 0 0 0 -6.478-6.478z"/><path d="m112.13 101.795a1 1 0 0 1 -1-1v-4.258a1 1 0 0 1 2 0v4.258a1 1 0 0 1 -1 1z"/><path d="m113.037 97.537h-1.814a1 1 0 0 1 0-2h1.814a1 1 0 0 1 0 2z"/><path d="m112.13 118.072a1 1 0 0 1 -1-1v-4.258a1 1 0 0 1 2 0v4.258a1 1 0 0 1 -1 1z"/><path d="m113.037 118.072h-1.814a1 1 0 0 1 0-2h1.814a1 1 0 0 1 0 2z"/><path d="m122.4 107.8h-4.259a1 1 0 1 1 0-2h4.259a1 1 0 0 1 0 2z"/><path d="m122.4 108.711a1 1 0 0 1 -1-1v-1.811a1 1 0 0 1 2 0v1.814a1 1 0 0 1 -1 .997z"/><path d="m106.12 107.8h-4.258a1 1 0 0 1 0-2h4.258a1 1 0 1 1 0 2z"/><path d="m101.862 108.711a1 1 0 0 1 -1-1v-1.811a1 1 0 0 1 2 0v1.814a1 1 0 0 1 -1 .997z"/></g><path d="m116.506 102.428 3.102-3.102" fill="#ef5361"/><path d="m116.506 103.428a1 1 0 0 1 -.707-1.707l3.1-3.1a1 1 0 1 1 1.414 1.414l-3.1 3.1a1 1 0 0 1 -.707.293z" fill="#2f3a5a"/><path d="m118.947 98.666 1.321 1.321" fill="#ef5361"/><path d="m120.269 100.987a1 1 0 0 1 -.707-.293l-1.321-1.321a1 1 0 0 1 1.414-1.414l1.321 1.321a1 1 0 0 1 -.707 1.707z" fill="#2f3a5a"/><path d="m107.753 111.181-3.101 3.101" fill="#ef5361"/><path d="m104.651 115.282a1 1 0 0 1 -.707-1.707l3.1-3.1a1 1 0 0 1 1.414 1.414l-3.1 3.1a1 1 0 0 1 -.707.293z" fill="#2f3a5a"/><path d="m105.312 114.943-1.321-1.321" fill="#ef5361"/><path d="m105.313 115.943a1 1 0 0 1 -.707-.293l-1.321-1.321a1 1 0 0 1 1.414-1.414l1.321 1.321a1 1 0 0 1 -.707 1.707z" fill="#2f3a5a"/><path d="m116.506 111.181 3.102 3.101" fill="#ef5361"/><path d="m119.607 115.282a1 1 0 0 1 -.707-.293l-3.1-3.1a1 1 0 0 1 1.414-1.414l3.1 3.1a1 1 0 0 1 -.707 1.707z" fill="#2f3a5a"/><path d="m120.268 113.622-1.321 1.321" fill="#ef5361"/><path d="m118.947 115.943a1 1 0 0 1 -.707-1.707l1.321-1.321a1 1 0 0 1 1.414 1.414l-1.321 1.321a1 1 0 0 1 -.707.293z" fill="#2f3a5a"/><path d="m107.753 102.428-3.101-3.102" fill="#ef5361"/><path d="m107.753 103.428a1 1 0 0 1 -.707-.293l-3.1-3.1a1 1 0 1 1 1.414-1.414l3.1 3.1a1 1 0 0 1 -.707 1.707z" fill="#2f3a5a"/><path d="m103.991 99.987 1.321-1.321" fill="#ef5361"/><path d="m103.991 100.987a1 1 0 0 1 -.707-1.707l1.321-1.321a1 1 0 0 1 1.414 1.414l-1.321 1.321a1 1 0 0 1 -.707.293z" fill="#2f3a5a"/><path d="m112.583 104.657h-.907a1 1 0 1 1 0-2h.907a1 1 0 1 1 0 2z" fill="#2f3a5a"/><path d="m109.239 106.804-.022-.907" fill="#ef5361"/><path d="m109.239 107.8a1 1 0 0 1 -1-.975l-.022-.906a1 1 0 0 1 .976-1.024.982.982 0 0 1 1.024.975l.022.906a1 1 0 0 1 -.976 1.024z" fill="#2f3a5a"/><path d="m114.43 106.804-.022-.907" fill="#ef5361"/><path d="m114.43 107.8a1 1 0 0 1 -1-.975l-.022-.906a1 1 0 0 1 2-.05l.022.906a1 1 0 0 1 -.976 1.024z" fill="#2f3a5a"/><path d="m112.323 110.286h-.907a1 1 0 0 1 0-2h.907a1 1 0 0 1 0 2z" fill="#2f3a5a"/><circle cx="17.966" cy="106.519" fill="#e95a6a" r="7.478"/><path d="m17.966 115a8.478 8.478 0 1 1 8.479-8.478 8.487 8.487 0 0 1 -8.479 8.478zm0-14.956a6.478 6.478 0 1 0 6.479 6.478 6.486 6.486 0 0 0 -6.479-6.481z" fill="#2f3a5a"/><path d="m17.966 101.51a1 1 0 0 1 -1-1v-4.259a1 1 0 0 1 2 0v4.258a1 1 0 0 1 -1 1.001z" fill="#2f3a5a"/><path d="m18.873 97.251h-1.813a1 1 0 1 1 0-2h1.813a1 1 0 1 1 0 2z" fill="#2f3a5a"/><path d="m17.966 117.787a1 1 0 0 1 -1-1v-4.258a1 1 0 0 1 2 0v4.258a1 1 0 0 1 -1 1z" fill="#2f3a5a"/><path d="m18.873 117.787h-1.813a1 1 0 0 1 0-2h1.813a1 1 0 0 1 0 2z" fill="#2f3a5a"/><path d="m28.234 107.519h-4.258a1 1 0 1 1 0-2h4.259a1 1 0 1 1 0 2z" fill="#2f3a5a"/><path d="m28.234 108.426a1 1 0 0 1 -1-1v-1.814a1 1 0 1 1 2 0v1.814a1 1 0 0 1 -1 1z" fill="#2f3a5a"/><path d="m11.957 107.519h-4.257a1 1 0 1 1 0-2h4.259a1 1 0 0 1 0 2z" fill="#2f3a5a"/><path d="m7.7 108.426a1 1 0 0 1 -1-1v-1.814a1 1 0 0 1 2 0v1.814a1 1 0 0 1 -1 1z" fill="#2f3a5a"/><path d="m22.343 102.143 3.101-3.102" fill="#ef5361"/><path d="m22.343 103.143a1 1 0 0 1 -.707-1.707l3.1-3.1a1 1 0 0 1 1.414 1.414l-3.1 3.1a1 1 0 0 1 -.707.293z" fill="#2f3a5a"/><path d="m24.784 98.381 1.321 1.321" fill="#ef5361"/><path d="m26.1 100.7a1 1 0 0 1 -.707-.293l-1.321-1.321a1 1 0 0 1 1.414-1.414l1.321 1.321a1 1 0 0 1 -.707 1.707z" fill="#2f3a5a"/><path d="m13.59 110.896-3.102 3.101" fill="#ef5361"/><path d="m10.488 115a1 1 0 0 1 -.707-1.707l3.1-3.1a1 1 0 0 1 1.419 1.407l-3.1 3.1a1 1 0 0 1 -.712.3z" fill="#2f3a5a"/><path d="m11.149 114.658-1.321-1.321" fill="#ef5361"/><path d="m11.148 115.658a1 1 0 0 1 -.707-.293l-1.32-1.321a1 1 0 1 1 1.414-1.414l1.32 1.321a1 1 0 0 1 -.707 1.707z" fill="#2f3a5a"/><path d="m22.343 110.896 3.101 3.101" fill="#ef5361"/><path d="m25.444 115a1 1 0 0 1 -.707-.293l-3.1-3.1a1 1 0 0 1 1.414-1.414l3.1 3.1a1 1 0 0 1 -.707 1.707z" fill="#2f3a5a"/><path d="m26.105 113.337-1.321 1.321" fill="#ef5361"/><path d="m24.783 115.658a1 1 0 0 1 -.707-1.707l1.321-1.321a1 1 0 0 1 1.414 1.414l-1.321 1.321a1 1 0 0 1 -.707.293z" fill="#2f3a5a"/><path d="m13.59 102.143-3.102-3.102" fill="#ef5361"/><path d="m13.59 103.143a1 1 0 0 1 -.707-.293l-3.1-3.1a1 1 0 0 1 1.417-1.416l3.1 3.1a1 1 0 0 1 -.707 1.707z" fill="#2f3a5a"/><path d="m9.828 99.702 1.321-1.321" fill="#ef5361"/><path d="m9.828 100.7a1 1 0 0 1 -.707-1.707l1.32-1.321a1 1 0 0 1 1.414 1.414l-1.32 1.321a1 1 0 0 1 -.707.293z" fill="#2f3a5a"/><path d="m18.42 104.373h-.907a1 1 0 1 1 0-2h.907a1 1 0 1 1 0 2z" fill="#2f3a5a"/><path d="m15.076 106.519-.023-.907" fill="#ef5361"/><path d="m15.076 107.519a1 1 0 0 1 -1-.975l-.022-.907a1 1 0 0 1 2-.05l.022.907a1 1 0 0 1 -.976 1.024z" fill="#2f3a5a"/><path d="m20.267 106.519-.023-.907" fill="#ef5361"/><path d="m20.267 107.519a1 1 0 0 1 -1-.975l-.022-.907a1 1 0 0 1 2-.05l.022.907a1 1 0 0 1 -.976 1.024z" fill="#2f3a5a"/><path d="m18.16 110h-.907a1 1 0 0 1 0-2h.907a1 1 0 0 1 0 2z" fill="#2f3a5a"/><circle cx="89.354" cy="50.216" fill="#e95a6a" r="6.733"/><path d="m89.354 57.949a7.733 7.733 0 1 1 7.733-7.732 7.741 7.741 0 0 1 -7.733 7.732zm0-13.465a5.733 5.733 0 1 0 5.733 5.733 5.739 5.739 0 0 0 -5.733-5.734z" fill="#2f3a5a"/><path d="m89.354 45.806a1 1 0 0 1 -1-1v-3.834a1 1 0 0 1 2 0v3.834a1 1 0 0 1 -1 1z" fill="#2f3a5a"/><path d="m90.171 41.972h-1.634a1 1 0 0 1 0-2h1.634a1 1 0 0 1 0 2z" fill="#2f3a5a"/><path d="m89.354 60.46a1 1 0 0 1 -1-1v-3.834a1 1 0 1 1 2 0v3.834a1 1 0 0 1 -1 1z" fill="#2f3a5a"/><path d="m90.171 60.46h-1.634a1 1 0 0 1 0-2h1.634a1 1 0 0 1 0 2z" fill="#2f3a5a"/><path d="m98.6 51.216h-3.835a1 1 0 0 1 0-2h3.835a1 1 0 0 1 0 2z" fill="#2f3a5a"/><path d="m98.6 52.033a1 1 0 0 1 -1-1v-1.633a1 1 0 0 1 2 0v1.633a1 1 0 0 1 -1 1z" fill="#2f3a5a"/><path d="m83.943 51.216h-3.834a1 1 0 0 1 0-2h3.834a1 1 0 0 1 0 2z" fill="#2f3a5a"/><path d="m80.109 52.033a1 1 0 0 1 -1-1v-1.633a1 1 0 0 1 2 0v1.633a1 1 0 0 1 -1 1z" fill="#2f3a5a"/><path d="m93.294 46.276 2.793-2.793" fill="#ef5361"/><path d="m93.294 47.276a1 1 0 0 1 -.707-1.707l2.793-2.792a1 1 0 0 1 1.414 1.414l-2.794 2.792a1 1 0 0 1 -.706.293z" fill="#2f3a5a"/><path d="m95.492 42.889 1.189 1.189" fill="#ef5361"/><path d="m96.682 45.078a1 1 0 0 1 -.707-.293l-1.19-1.185a1 1 0 0 1 1.415-1.418l1.189 1.189a1 1 0 0 1 -.707 1.707z" fill="#2f3a5a"/><path d="m85.413 54.157-2.792 2.792" fill="#ef5361"/><path d="m82.621 57.949a1 1 0 0 1 -.707-1.707l2.792-2.792a1 1 0 0 1 1.414 1.414l-2.792 2.792a1 1 0 0 1 -.707.293z" fill="#2f3a5a"/><path d="m83.216 57.543-1.189-1.189" fill="#ef5361"/><path d="m83.216 58.543a1 1 0 0 1 -.707-.293l-1.189-1.189a1 1 0 0 1 1.414-1.414l1.189 1.189a1 1 0 0 1 -.707 1.707z" fill="#2f3a5a"/><path d="m93.294 54.157 2.793 2.792" fill="#ef5361"/><path d="m96.087 57.949a1 1 0 0 1 -.707-.293l-2.793-2.792a1 1 0 0 1 1.413-1.414l2.793 2.792a1 1 0 0 1 -.707 1.707z" fill="#2f3a5a"/><path d="m96.681 56.354-1.189 1.189" fill="#ef5361"/><path d="m95.492 58.543a1 1 0 0 1 -.707-1.707l1.189-1.189a1 1 0 0 1 1.414 1.414l-1.188 1.189a1 1 0 0 1 -.708.293z" fill="#2f3a5a"/><path d="m85.413 46.276-2.792-2.793" fill="#ef5361"/><path d="m85.413 47.276a1 1 0 0 1 -.707-.293l-2.792-2.793a1 1 0 0 1 1.414-1.414l2.792 2.792a1 1 0 0 1 -.707 1.707z" fill="#2f3a5a"/><path d="m82.027 44.078 1.189-1.189" fill="#ef5361"/><path d="m82.026 45.078a1 1 0 0 1 -.707-1.707l1.189-1.189a1 1 0 0 1 1.415 1.418l-1.189 1.189a1 1 0 0 1 -.708.289z" fill="#2f3a5a"/><path d="m89.762 48.383h-.816a1 1 0 0 1 0-2h.816a1 1 0 0 1 0 2z" fill="#2f3a5a"/><path d="m86.752 50.216-.021-.817" fill="#ef5361"/><path d="m86.752 51.216a1 1 0 0 1 -1-.975l-.021-.816a1 1 0 0 1 .975-1.024h.025a1 1 0 0 1 1 .975l.021.816a1 1 0 0 1 -.975 1.024z" fill="#2f3a5a"/><path d="m91.425 50.216-.02-.817" fill="#ef5361"/><path d="m91.425 51.216a1 1 0 0 1 -1-.976l-.02-.816a1 1 0 0 1 .977-1.023h.023a1 1 0 0 1 1 .976l.02.816a1 1 0 0 1 -.977 1.023z" fill="#2f3a5a"/><path d="m89.528 53.451h-.816a1 1 0 0 1 0-2h.816a1 1 0 0 1 0 2z" fill="#2f3a5a"/><circle cx="36.944" cy="54.157" fill="#e95a6a" r="6.733"/><path d="m36.943 61.889a7.733 7.733 0 1 1 7.732-7.732 7.741 7.741 0 0 1 -7.732 7.732zm0-13.465a5.733 5.733 0 1 0 5.732 5.733 5.739 5.739 0 0 0 -5.732-5.733z" fill="#2f3a5a"/><path d="m36.943 49.746a1 1 0 0 1 -1-1v-3.834a1 1 0 0 1 2 0v3.834a1 1 0 0 1 -1 1z" fill="#2f3a5a"/><path d="m37.76 45.912h-1.633a1 1 0 0 1 0-2h1.633a1 1 0 0 1 0 2z" fill="#2f3a5a"/><path d="m36.943 64.4a1 1 0 0 1 -1-1v-3.833a1 1 0 0 1 2 0v3.833a1 1 0 0 1 -1 1z" fill="#2f3a5a"/><path d="m37.76 64.4h-1.633a1 1 0 1 1 0-2h1.633a1 1 0 0 1 0 2z" fill="#2f3a5a"/><path d="m46.188 55.157h-3.834a1 1 0 0 1 0-2h3.833a1 1 0 0 1 0 2z" fill="#2f3a5a"/><path d="m46.188 55.973a1 1 0 0 1 -1-1v-1.633a1 1 0 0 1 2 0v1.633a1 1 0 0 1 -1 1z" fill="#2f3a5a"/><path d="m31.533 55.157h-3.833a1 1 0 0 1 0-2h3.834a1 1 0 0 1 0 2z" fill="#2f3a5a"/><path d="m27.7 55.973a1 1 0 0 1 -1-1v-1.633a1 1 0 0 1 2 0v1.633a1 1 0 0 1 -1 1z" fill="#2f3a5a"/><path d="m40.884 50.216 2.792-2.792" fill="#ef5361"/><path d="m40.884 51.216a1 1 0 0 1 -.707-1.707l2.792-2.792a1 1 0 0 1 1.414 1.414l-2.792 2.792a1 1 0 0 1 -.707.293z" fill="#2f3a5a"/><path d="m43.081 46.829 1.19 1.19" fill="#ef5361"/><path d="m44.271 49.019a1 1 0 0 1 -.707-.293l-1.189-1.189a1 1 0 0 1 1.414-1.414l1.189 1.189a1 1 0 0 1 -.707 1.707z" fill="#2f3a5a"/><path d="m33.003 58.097-2.792 2.792" fill="#ef5361"/><path d="m30.211 61.889a1 1 0 0 1 -.707-1.707l2.796-2.792a1 1 0 0 1 1.41 1.41l-2.792 2.8a1 1 0 0 1 -.707.289z" fill="#2f3a5a"/><path d="m30.806 61.484-1.19-1.19" fill="#ef5361"/><path d="m30.806 62.484a1 1 0 0 1 -.707-.293l-1.19-1.191a1 1 0 0 1 1.414-1.414l1.189 1.189a1 1 0 0 1 -.707 1.707z" fill="#2f3a5a"/><path d="m40.884 58.097 2.792 2.792" fill="#ef5361"/><path d="m43.676 61.889a1 1 0 0 1 -.707-.293l-2.792-2.796a1 1 0 0 1 1.414-1.414l2.792 2.792a1 1 0 0 1 -.707 1.707z" fill="#2f3a5a"/><path d="m44.271 60.294-1.19 1.19" fill="#ef5361"/><path d="m43.081 62.484a1 1 0 0 1 -.707-1.707l1.189-1.189a1 1 0 0 1 1.415 1.412l-1.189 1.189a1 1 0 0 1 -.708.295z" fill="#2f3a5a"/><path d="m33.003 50.216-2.792-2.792" fill="#ef5361"/><path d="m33 51.216a1 1 0 0 1 -.707-.293l-2.793-2.792a1 1 0 0 1 1.414-1.414l2.792 2.792a1 1 0 0 1 -.706 1.707z" fill="#2f3a5a"/><path d="m29.616 48.019 1.19-1.19" fill="#ef5361"/><path d="m29.616 49.019a1 1 0 0 1 -.707-1.707l1.191-1.19a1 1 0 0 1 1.414 1.414l-1.189 1.189a1 1 0 0 1 -.709.294z" fill="#2f3a5a"/><path d="m37.352 52.323h-.816a1 1 0 0 1 0-2h.816a1 1 0 0 1 0 2z" fill="#2f3a5a"/><path d="m34.341 54.156-.02-.816" fill="#ef5361"/><path d="m34.341 55.156a1 1 0 0 1 -1-.976l-.02-.816a1 1 0 0 1 .979-1.024.973.973 0 0 1 1.023.976l.02.816a1 1 0 0 1 -.977 1.023z" fill="#2f3a5a"/><path d="m39.015 54.156-.02-.816" fill="#ef5361"/><path d="m39.015 55.156a1 1 0 0 1 -1-.975l-.021-.816a1 1 0 0 1 .975-1.024h.025a1 1 0 0 1 1 .975l.021.816a1 1 0 0 1 -.975 1.024z" fill="#2f3a5a"/><path d="m37.118 57.391h-.818a1 1 0 0 1 0-2h.816a1 1 0 0 1 0 2z" fill="#2f3a5a"/></svg>